<?xml version="1.0" encoding="utf-8"?>
<!-- Generator: Adobe Illustrator 16.0.0, SVG Export Plug-In . SVG Version: 6.00 Build 0)  -->
<!DOCTYPE svg PUBLIC "-//W3C//DTD SVG 1.1//EN" "http://www.w3.org/Graphics/SVG/1.1/DTD/svg11.dtd">
<svg version="1.1" xmlns="http://www.w3.org/2000/svg" xmlns:xlink="http://www.w3.org/1999/xlink" x="0px" y="0px" width="30px"
	 height="19.4px" viewBox="0 0 30 19.4" style="enable-background:new 0 0 30 19.4;" xml:space="preserve">
<style type="text/css">
<![CDATA[
	.st0{fill:#ED1E25;}
	.st1{fill:#ED1F24;}
	.st2{display:inline;}
	.st3{display:none;}
]]>
</style>
<g id="Layer_1" class="st3">
	<g id="IlHK9Z_1_" class="st2">
		
			<image style="overflow:visible;" width="400" height="300" id="IlHK9Z" xlink:href="E43DFF5910D5EB1F.jpg"  transform="matrix(1 0 0 1 50 78.25)">
		</image>
	</g>
</g>
<g id="Layer_3">
</g>
<g id="Layer_4">
	<g>
		<polygon class="st0" points="16.2,13.7 13.6,13.7 13.6,5.4 14.9,4 16.2,5.4 		"/>
		<g>
			<g>
				<polygon class="st0" points="11.9,7.8 10,7.7 10,9.7 14,13.6 15.8,13.6 15.8,11.7 				"/>
			</g>
		</g>
		<g>
			<g>
				<polygon class="st0" points="18,7.8 14,11.7 14,11.7 14,13.6 15.9,13.6 19.8,9.7 19.9,7.7 				"/>
			</g>
		</g>
		<rect x="14.6" y="13.4" class="st0" width="0.7" height="2"/>
		<polygon class="st0" points="15,9.5 16.8,11.6 18.6,13.7 15,13.7 11.4,13.7 13.2,11.6 		"/>
	</g>
</g>
<g id="Layer_2">
	<rect x="2.2" y="2.2" class="st1" width="4.3" height="15"/>
	<rect x="23.5" y="2.2" class="st1" width="4.3" height="15"/>
</g>
</svg>
