<?xml version="1.0" encoding="utf-8"?>
<!-- Generator: Adobe Illustrator 16.0.0, SVG Export Plug-In . SVG Version: 6.00 Build 0)  -->
<!DOCTYPE svg PUBLIC "-//W3C//DTD SVG 1.1//EN" "http://www.w3.org/Graphics/SVG/1.1/DTD/svg11.dtd">
<svg version="1.1" xmlns="http://www.w3.org/2000/svg" xmlns:xlink="http://www.w3.org/1999/xlink" x="0px" y="0px" width="243.8px"
	 height="267.3px" viewBox="58.6 0 243.8 267.3" style="enable-background:new 58.6 0 243.8 267.3;" xml:space="preserve">
<style type="text/css">
<![CDATA[
	.st0{font-family:'BrandonGrotesque-Black';}
	.st1{display:inline;fill:none;stroke:#13E568;stroke-width:2;stroke-miterlimit:10;}
	.st2{fill:#13E568;}
	.st3{fill:none;stroke:#00009D;stroke-width:2.017;stroke-miterlimit:10;}
	.st4{fill:none;stroke:#00009D;stroke-width:14.5225;stroke-miterlimit:10;}
	.st5{font-size:8.4207;}
	.st6{display:inline;}
	.st7{display:inline;fill:none;}
	.st8{letter-spacing:2;}
	.st9{letter-spacing:4;}
	.st10{fill:#00009D;}
	.st11{display:inline;fill:none;stroke:#1CE577;stroke-width:14.5225;stroke-miterlimit:10;}
	.st12{display:none;}
	.st13{display:inline;fill:#13E568;}
]]>
</style>
<g id="Layer_1" class="st12">
	<g id="Layer_1_1_" class="st6">
	</g>
	<g id="Layer_2" class="st6">
		<g>
			<path class="st10" d="M29.8,0.2C29.8,0.1,29.9,0,30,0h1c0.1,0,0.2,0.1,0.2,0.2v5.5c-0.1,0.1-0.2,0.2-0.3,0.2h-1
				c-0.1,0-0.2-0.1-0.2-0.2L29.8,0.2L29.8,0.2z"/>
			<path class="st10" d="M37.3,1.3h-1.2c-0.1,0-0.2-0.1-0.2-0.2V0.2C35.9,0.1,36,0,36.1,0h3.7C39.9,0,40,0.1,40,0.2v0.9
				c0,0.1-0.1,0.2-0.2,0.2h-1.2v4.4c0,0.1-0.1,0.2-0.2,0.2h-1c-0.1,0-0.2-0.1-0.2-0.2L37.3,1.3L37.3,1.3z"/>
			<path class="st10" d="M43.7,5.6L46.3,0c0-0.1,0.1-0.1,0.1-0.1h0.1c0.1,0,0.1,0,0.1,0.1l2.6,5.6c0,0.1,0,0.2-0.1,0.2h-0.9
				c-0.1,0-0.2,0-0.3-0.2l-0.3-0.7h-2.3L45,5.6c0.1,0.2,0,0.3-0.2,0.3h-0.9C43.8,5.9,43.7,5.8,43.7,5.6z M47.2,3.9l-0.6-1.4l0,0
				l-0.7,1.4H47.2z"/>
			<path class="st10" d="M54,0.2C54,0.1,54.1,0,54.2,0h1c0.1,0,0.2,0.1,0.2,0.2v4.4h2c0.1,0,0.2,0.1,0.2,0.2v0.9
				c0,0.1-0.1,0.2-0.2,0.2h-3.1c-0.2,0-0.3-0.1-0.3-0.2V0.2z"/>
			<path class="st10" d="M62.3,0.2c0-0.1,0.1-0.2,0.2-0.2h1c0.1,0,0.2,0.1,0.2,0.2v5.5c0,0.1-0.1,0.2-0.2,0.2h-1
				c-0.1,0-0.2-0.1-0.2-0.2V0.2z"/>
			<path class="st10" d="M68.3,5.6L70.9,0c0-0.1,0.1-0.1,0.1-0.1h0.1c0.1,0,0.1,0,0.1,0.1l2.6,5.6c0,0.1,0,0.2-0.1,0.2h-0.9
				c-0.1,0-0.2,0-0.3-0.2l-0.3-0.7h-2.3l-0.3,0.7c0,0.1-0.1,0.2-0.3,0.2h-0.9C68.3,5.9,68.2,5.8,68.3,5.6z M71.7,3.9l-0.6-1.4l0,0
				l-0.7,1.4H71.7z"/>
			<path class="st10" d="M29.8,10.6c0-0.1,0.1-0.2,0.1-0.2h2c1.6,0,2.9,1.3,2.9,2.9s-1.3,2.9-2.9,2.9h-2c-0.1,0-0.1-0.1-0.1-0.2
				V10.6z M31.9,15c0.9,0,1.6-0.7,1.6-1.7c0-0.9-0.7-1.7-1.6-1.7h-0.8V15H31.9z"/>
			<path class="st10" d="M38.7,10.6c0-0.1,0.1-0.2,0.2-0.2h3.4c0.1,0,0.2,0.1,0.2,0.2v0.9c0,0.1-0.1,0.2-0.2,0.2H40v1h1.9
				c0.1,0,0.2,0.1,0.2,0.2v0.9c0,0.1-0.1,0.2-0.2,0.2H40v1.1h2.3c0.1,0,0.2,0.1,0.2,0.2v0.9c0,0.1-0.1,0.2-0.2,0.2h-3.4
				c-0.1,0-0.2-0.1-0.2-0.2V10.6z"/>
			<path class="st10" d="M46.1,15.5l0.4-0.7c0.1-0.1,0.2-0.1,0.3-0.1c0,0,0.6,0.5,1.2,0.5c0.3,0,0.6-0.2,0.6-0.5
				c0-0.3-0.3-0.6-0.9-0.8c-0.7-0.3-1.6-0.8-1.6-1.8c0-0.8,0.6-1.7,1.9-1.7c0.9,0,1.5,0.4,1.8,0.6c0.1,0.1,0.1,0.2,0,0.3l-0.4,0.6
				c-0.1,0.1-0.2,0.2-0.3,0.1c-0.1,0-0.7-0.5-1.2-0.5c-0.3,0-0.5,0.2-0.5,0.4c0,0.3,0.2,0.5,0.9,0.8c0.6,0.3,1.7,0.8,1.7,1.9
				c0,0.9-0.7,1.7-2,1.7c-1.1,0-1.7-0.4-1.9-0.6C46.1,15.6,46,15.6,46.1,15.5z"/>
			<path class="st10" d="M53.8,10.6c0-0.1,0.1-0.2,0.2-0.2h1c0.1,0,0.2,0.1,0.2,0.2v5.5c0,0.1-0.1,0.2-0.2,0.2h-1
				c-0.1,0-0.2-0.1-0.2-0.2V10.6z"/>
			<path class="st10" d="M62,10.4c0.7,0,1.5,0.3,2,0.8c0.1,0.1,0.1,0.2,0,0.2l-0.7,0.7c-0.1,0.1-0.2,0.1-0.2,0
				c-0.3-0.3-0.7-0.4-1.1-0.4c-0.9,0-1.6,0.8-1.6,1.7s0.7,1.7,1.6,1.7c0.2,0,0.5,0,0.7-0.1v-0.5h-0.5c-0.1,0-0.2-0.1-0.2-0.1v-0.8
				c0-0.1,0.1-0.2,0.2-0.2H64c0.1,0,0.1,0.1,0.1,0.2v2.2c0,0,0,0.1-0.1,0.1c0,0-0.9,0.5-2.1,0.5c-1.7,0-3-1.3-3-3
				C59,11.7,60.3,10.4,62,10.4z"/>
			<path class="st10" d="M68.1,10.5c0-0.1,0.1-0.1,0.2-0.1h0.2l3.3,3.2l0,0v-2.9c0-0.1,0.1-0.2,0.2-0.2h1c0.1,0,0.2,0.1,0.2,0.2v5.6
				c0,0.1-0.1,0.1-0.2,0.1h-0.1h-0.1l-3.3-3.3l0,0v3.1c0,0.1-0.1,0.2-0.2,0.2h-1c-0.1,0-0.2-0.1-0.2-0.2V10.5z"/>
		</g>
		<line class="st4" x1="257.2" y1="135.7" x2="302.4" y2="135.7"/>
		<g>
			<path class="st10" d="M133.7-0.1h13.7v61.3h-13.7l-29.2-38.4v38.4H90.8V-0.1h12.8l30.1,39.5V-0.1L133.7-0.1z"/>
		</g>
		<g>
			<path class="st10" d="M199.5,144.1l15.6-39h14.8l-24.6,61.3h-11.6L169.1,105h14.8L199.5,144.1z"/>
		</g>
		<g>
			<path class="st10" d="M164.9,203.8v12.6h-31.6v13.1h28.4v12.1h-28.4v13.2h32.6v12.5h-46.7v-63.4L164.9,203.8L164.9,203.8z"/>
		</g>
		<line class="st3" x1="73.8" y1="24.9" x2="0" y2="24.9"/>
		<path class="st10" d="M247.4,13.6c-17.8,0-32.2,14.4-32.2,32.2h13.3c0-10.5,8.5-18.9,18.9-18.9c10.5,0,18.9,8.5,18.9,18.9
			s-8.5,18.9-18.9,18.9V78c17.8,0,32.2-14.4,32.2-32.2C279.6,28,265.2,13.6,247.4,13.6z"/>
	</g>
	<g id="Layer_3" class="st6">
	</g>
</g>
<g id="Layer_2_1_" class="st12">
	<rect x="236.5" y="204.6" class="st7" width="45.4" height="27.2"/>
	<text transform="matrix(1 0 0 1 236.4773 210.4956)" class="st6"><tspan x="0" y="0" class="st2 st0 st5 st9">itali</tspan><tspan x="39.8" y="0" class="st2 st0 st5 st8">a </tspan><tspan x="0" y="10.5" class="st2 st0 st5 st8">desig</tspan><tspan x="38.9" y="10.5" class="st2 st0 st5 st8">n</tspan></text>
	<g class="st6">
		<path class="st2" d="M200.9,144.5l15.8-39.5h15l-25,62.1h-11.7l-25-62.1h15L200.9,144.5z"/>
	</g>
	<g class="st6">
		<path class="st2" d="M165.9,203v12.8h-32v13.2h28.8v12.2h-28.8v13.3h33v12.7h-47.3V203H165.9z"/>
	</g>
	<line class="st11" x1="58.3" y1="112" x2="104.1" y2="112"/>
	<line class="st1" x1="283.5" y1="228.2" x2="208.7" y2="228.2"/>
	<polygon class="st13" points="134.2,0 134.2,40 103.7,0 90.8,0 90.8,47 104.6,47 104.6,23.2 134.2,62.1 148.1,62.1 148.1,0 	"/>
	<path class="st13" d="M270.6,23.2c-6.3-6.1-14-9.2-23.2-9.2c-9.2,0-16.9,3.1-23.2,9.2c-4.7,4.6-7.7,10-8.8,16.3
		c-0.4,2.1-0.6,4.3-0.6,6.6c0,1.7,0.1,3.3,0.3,4.8H231c-1-5.4-1.2-11.1-0.7-12.5c0.9-2.4,2.2-4.5,4-6.5c3.6-3.9,7.9-5.9,13.1-5.9
		c5.2,0,9.6,2,13.1,5.9c3.6,3.9,5.3,8.6,5.3,14.2c0,5.5-1.8,10.2-5.3,14.1c-3.6,3.9-7.9,5.8-13.1,5.8c-0.3,0-0.6,0-0.9,0v12.1
		c0.3,0,0.5,0,0.8,0c9.2,0,16.9-3.1,23.2-9.2c6.3-6.1,9.4-13.8,9.4-22.9C280,37,276.9,29.4,270.6,23.2z"/>
</g>
<g id="Layer_3_1_">
	<g>
		<path class="st10" d="M237.3,204.9c0-0.1,0.1-0.2,0.2-0.2h1c0.1,0,0.2,0.1,0.2,0.2v5.5c-0.1,0.1-0.2,0.2-0.3,0.2h-1
			c-0.1,0-0.2-0.1-0.2-0.2L237.3,204.9L237.3,204.9z"/>
		<path class="st10" d="M244.8,206h-1.2c-0.1,0-0.2-0.1-0.2-0.2v-0.9c0-0.1,0.1-0.2,0.2-0.2h3.7c0.1,0,0.2,0.1,0.2,0.2v0.9
			c0,0.1-0.1,0.2-0.2,0.2h-1.2v4.4c0,0.1-0.1,0.2-0.2,0.2h-1c-0.1,0-0.2-0.1-0.2-0.2L244.8,206L244.8,206z"/>
		<path class="st10" d="M251.2,210.3l2.6-5.6c0-0.1,0.1-0.1,0.1-0.1h0.1c0.1,0,0.1,0,0.1,0.1l2.6,5.6c0,0.1,0,0.2-0.1,0.2h-0.9
			c-0.1,0-0.2,0-0.3-0.2l-0.3-0.7h-2.3l-0.3,0.7c0.1,0.2,0,0.3-0.2,0.3h-0.9C251.3,210.6,251.2,210.5,251.2,210.3z M254.7,208.6
			l-0.6-1.4l0,0l-0.7,1.4H254.7z"/>
		<path class="st10" d="M261.5,204.9c0-0.1,0.1-0.2,0.2-0.2h1c0.1,0,0.2,0.1,0.2,0.2v4.4h2c0.1,0,0.2,0.1,0.2,0.2v0.9
			c0,0.1-0.1,0.2-0.2,0.2h-3.1c-0.2,0-0.3-0.1-0.3-0.2V204.9z"/>
		<path class="st10" d="M269.8,204.9c0-0.1,0.1-0.2,0.2-0.2h1c0.1,0,0.2,0.1,0.2,0.2v5.5c0,0.1-0.1,0.2-0.2,0.2h-1
			c-0.1,0-0.2-0.1-0.2-0.2V204.9z"/>
		<path class="st10" d="M275.8,210.3l2.6-5.6c0-0.1,0.1-0.1,0.1-0.1h0.1c0.1,0,0.1,0,0.1,0.1l2.6,5.6c0,0.1,0,0.2-0.1,0.2h-0.9
			c-0.1,0-0.2,0-0.3-0.2l-0.3-0.7h-2.3l-0.3,0.7c0,0.1-0.1,0.2-0.3,0.2h-0.9C275.8,210.6,275.7,210.5,275.8,210.3z M279.2,208.6
			l-0.6-1.4l0,0l-0.7,1.4H279.2z"/>
		<path class="st10" d="M237.3,215.3c0-0.1,0.1-0.2,0.1-0.2h2c1.6,0,2.9,1.3,2.9,2.9c0,1.6-1.3,2.9-2.9,2.9h-2
			c-0.1,0-0.1-0.1-0.1-0.2V215.3z M239.4,219.7c0.9,0,1.6-0.7,1.6-1.7c0-0.9-0.7-1.7-1.6-1.7h-0.8v3.4H239.4z"/>
		<path class="st10" d="M246.2,215.3c0-0.1,0.1-0.2,0.2-0.2h3.4c0.1,0,0.2,0.1,0.2,0.2v0.9c0,0.1-0.1,0.2-0.2,0.2h-2.3v1h1.9
			c0.1,0,0.2,0.1,0.2,0.2v0.9c0,0.1-0.1,0.2-0.2,0.2h-1.9v1.1h2.3c0.1,0,0.2,0.1,0.2,0.2v0.9c0,0.1-0.1,0.2-0.2,0.2h-3.4
			c-0.1,0-0.2-0.1-0.2-0.2V215.3z"/>
		<path class="st10" d="M253.6,220.2l0.4-0.7c0.1-0.1,0.2-0.1,0.3-0.1c0,0,0.6,0.5,1.2,0.5c0.3,0,0.6-0.2,0.6-0.5
			c0-0.3-0.3-0.6-0.9-0.8c-0.7-0.3-1.6-0.8-1.6-1.8c0-0.8,0.6-1.7,1.9-1.7c0.9,0,1.5,0.4,1.8,0.6c0.1,0.1,0.1,0.2,0,0.3l-0.4,0.6
			c-0.1,0.1-0.2,0.2-0.3,0.1c-0.1,0-0.7-0.5-1.2-0.5c-0.3,0-0.5,0.2-0.5,0.4c0,0.3,0.2,0.5,0.9,0.8c0.6,0.3,1.7,0.8,1.7,1.9
			c0,0.9-0.7,1.7-2,1.7c-1.1,0-1.7-0.4-1.9-0.6C253.6,220.3,253.5,220.3,253.6,220.2z"/>
		<path class="st10" d="M261.3,215.3c0-0.1,0.1-0.2,0.2-0.2h1c0.1,0,0.2,0.1,0.2,0.2v5.5c0,0.1-0.1,0.2-0.2,0.2h-1
			c-0.1,0-0.2-0.1-0.2-0.2V215.3z"/>
		<path class="st10" d="M269.5,215.1c0.7,0,1.5,0.3,2,0.8c0.1,0.1,0.1,0.2,0,0.2l-0.7,0.7c-0.1,0.1-0.2,0.1-0.2,0
			c-0.3-0.3-0.7-0.4-1.1-0.4c-0.9,0-1.6,0.8-1.6,1.7s0.7,1.7,1.6,1.7c0.2,0,0.5,0,0.7-0.1v-0.5h-0.5c-0.1,0-0.2-0.1-0.2-0.1v-0.8
			c0-0.1,0.1-0.2,0.2-0.2h1.8c0.1,0,0.1,0.1,0.1,0.2v2.2c0,0,0,0.1-0.1,0.1c0,0-0.9,0.5-2.1,0.5c-1.7,0-3-1.3-3-3
			C266.5,216.4,267.8,215.1,269.5,215.1z"/>
		<path class="st10" d="M275.6,215.2c0-0.1,0.1-0.1,0.2-0.1h0.2l3.3,3.2l0,0v-2.9c0-0.1,0.1-0.2,0.2-0.2h1c0.1,0,0.2,0.1,0.2,0.2
			v5.6c0,0.1-0.1,0.1-0.2,0.1h-0.1h-0.1l-3.3-3.3l0,0v3.1c0,0.1-0.1,0.2-0.2,0.2h-1c-0.1,0-0.2-0.1-0.2-0.2V215.2z"/>
	</g>
	<g>
		<path class="st10" d="M133.7,0h13.7v61.3h-13.7l-29.2-38.4v38.4H90.8V0h12.8l30.1,39.5V0L133.7,0z"/>
	</g>
	<g>
		<path class="st10" d="M199.5,144.1l15.6-39h14.8l-24.6,61.3h-11.6l-24.6-61.3h14.8L199.5,144.1z"/>
	</g>
	<g>
		<path class="st10" d="M164.9,203.9v12.6h-31.6v13.1h28.4v12.1h-28.4v13.2h32.6v12.5h-46.7v-63.4L164.9,203.9L164.9,203.9z"/>
	</g>
	<line class="st3" x1="281.3" y1="229.6" x2="207.5" y2="229.6"/>
	<path class="st10" d="M247.4,13.7c-17.8,0-32.2,14.4-32.2,32.2h13.3c0-10.5,8.5-18.9,18.9-18.9c10.5,0,18.9,8.5,18.9,18.9
		s-8.5,18.9-18.9,18.9v13.3c17.8,0,32.2-14.4,32.2-32.2C279.6,28.1,265.2,13.7,247.4,13.7z"/>
</g>
</svg>
