<?xml version="1.0" encoding="utf-8"?>
<!-- Generator: Adobe Illustrator 14.0.0, SVG Export Plug-In . SVG Version: 6.00 Build 43363)  -->
<!DOCTYPE svg PUBLIC "-//W3C//DTD SVG 1.1//EN" "http://www.w3.org/Graphics/SVG/1.1/DTD/svg11.dtd">
<svg version="1.1" id="Layer_1" xmlns="http://www.w3.org/2000/svg" xmlns:xlink="http://www.w3.org/1999/xlink" x="0px" y="0px"
	 width="190px" height="386px" viewBox="0 0 190 386" enable-background="new 0 0 190 386" xml:space="preserve">
<g>
	<path fill="#EB2030" d="M12.131,12.274h6.75v30.246h-6.75V12.274z"/>
	<path fill="#EB2030" d="M24.939,73.502v24.404h-6.75V73.502H9.622v-5.842h23.885v5.842H24.939z"/>
	<path fill="#EB2030" d="M33.68,153.292l-2.812-6.534H18.189l-2.813,6.534H8.194l13.067-30.246h6.534l13.067,30.246H33.68z
		 M24.55,132.047l-3.808,8.784h7.572L24.55,132.047z"/>
	<path fill="#EB2030" d="M59.944,153.292v-30.246h6.75v24.232h12.895v6.014H59.944z"/>
	<path fill="#EB2030" d="M66.131,178.433h6.75v30.246h-6.75V178.433z"/>
	<path fill="#EB2030" d="M117.45,208.679l-2.812-6.534H101.96l-2.813,6.534h-7.182l13.067-30.246h6.534l13.067,30.246H117.45z
		 M108.32,187.433l-3.808,8.784h7.572L108.32,187.433z"/>
	<path fill="#EB2030" d="M89.239,237.778c2.883,2.64,4.327,6.311,4.327,11.013s-1.407,8.423-4.219,11.164
		c-2.812,2.741-7.104,4.11-12.873,4.11H66.131v-30.246h10.688C82.213,233.819,86.354,235.139,89.239,237.778z M84.284,255.757
		c1.658-1.558,2.488-3.822,2.488-6.793s-0.83-5.258-2.488-6.859c-1.659-1.601-4.205-2.401-7.637-2.401h-3.765v18.39h4.284
		C80.252,258.094,82.625,257.315,84.284,255.757z"/>
	<path fill="#EB2030" d="M136.792,233.819v6.015h-15.059v6.231h13.544v5.755h-13.544v6.275h15.534v5.971h-22.284v-30.246H136.792z"
		/>
	<path fill="#EB2030" d="M165.934,239.855c-0.649,0.535-0.974,1.241-0.974,2.121s0.397,1.58,1.191,2.099
		c0.793,0.52,2.624,1.132,5.495,1.839c2.87,0.708,5.098,1.767,6.685,3.181c1.586,1.414,2.379,3.477,2.379,6.188
		c0,2.712-1.016,4.911-3.05,6.599c-2.034,1.688-4.71,2.531-8.027,2.531c-4.789,0-9.102-1.774-12.938-5.322l4.024-4.933
		c3.259,2.856,6.274,4.283,9.043,4.283c1.24,0,2.213-0.266,2.92-0.8c0.707-0.534,1.06-1.255,1.06-2.164s-0.375-1.629-1.125-2.164
		c-0.75-0.533-2.236-1.074-4.458-1.623c-3.52-0.836-6.094-1.926-7.723-3.267c-1.63-1.341-2.445-3.446-2.445-6.318
		c0-2.87,1.031-5.084,3.093-6.642s4.637-2.337,7.724-2.337c2.02,0,4.039,0.346,6.059,1.039c2.019,0.692,3.778,1.673,5.279,2.943
		l-3.418,4.933c-2.626-1.991-5.338-2.986-8.135-2.986C167.471,239.055,166.583,239.322,165.934,239.855z"/>
	<path fill="#EB2030" d="M120.132,289.205h6.75v30.246h-6.75V289.205z"/>
	<path fill="#EB2030" d="M169.547,304.047h6.793v10.731c-3,3.346-7.154,5.02-12.462,5.02c-4.442,0-8.171-1.472-11.185-4.414
		c-3.015-2.942-4.522-6.657-4.522-11.143c0-4.485,1.536-8.228,4.608-11.229c3.073-3,6.779-4.5,11.121-4.5
		c4.341,0,8.113,1.429,11.315,4.284l-3.505,5.062c-1.356-1.183-2.604-1.997-3.744-2.444c-1.139-0.447-2.373-0.671-3.699-0.671
		c-2.568,0-4.731,0.873-6.491,2.618c-1.76,1.746-2.64,4.045-2.64,6.901c0,2.856,0.844,5.142,2.531,6.859
		c1.688,1.716,3.7,2.574,6.036,2.574c2.337,0,4.284-0.447,5.842-1.341V304.047z"/>
	<path fill="#EB2030" d="M122.601,344.591h6.75v30.246h-6.75l-14.41-18.952v18.952h-6.75v-30.246h6.318l14.842,19.472V344.591z"/>
</g>
</svg>
