<?xml version="1.0" encoding="utf-8"?>
<!-- Generator: Adobe Illustrator 16.0.0, SVG Export Plug-In . SVG Version: 6.00 Build 0)  -->
<!DOCTYPE svg PUBLIC "-//W3C//DTD SVG 1.1//EN" "http://www.w3.org/Graphics/SVG/1.1/DTD/svg11.dtd">
<svg version="1.1" id="Layer_1" xmlns="http://www.w3.org/2000/svg" xmlns:xlink="http://www.w3.org/1999/xlink" x="0px" y="0px"
	 width="302.4px" height="267.3px" viewBox="0 0 302.4 267.3" style="enable-background:new 0 0 302.4 267.3;" xml:space="preserve"
	>
<style type="text/css">
<![CDATA[
	.st0{fill:none;stroke:#00009D;stroke-width:2.017;stroke-miterlimit:10;}
	.st1{fill:none;stroke:#00009D;stroke-width:14.5225;stroke-miterlimit:10;}
	.st2{fill:#00009D;}
]]>
</style>
<g id="Layer_1_1_">
</g>
<g id="Layer_2">
	<g>
		<path class="st2" d="M29.8,0.2c0-0.1,0.1-0.2,0.2-0.2h1c0.1,0,0.2,0.1,0.2,0.2v5.5C31.1,5.9,31,6,30.9,6h-1
			c-0.1,0-0.2-0.1-0.2-0.2L29.8,0.2L29.8,0.2z"/>
		<path class="st2" d="M37.3,1.4h-1.2c-0.1,0-0.2-0.1-0.2-0.2V0.2c0-0.1,0.1-0.2,0.2-0.2h3.7c0.1,0,0.2,0.1,0.2,0.2v0.9
			c0,0.1-0.1,0.2-0.2,0.2h-1.2v4.4c0,0.1-0.1,0.2-0.2,0.2h-1c-0.1,0-0.2-0.1-0.2-0.2L37.3,1.4L37.3,1.4z"/>
		<path class="st2" d="M43.7,5.7l2.6-5.6C46.3,0,46.4,0,46.4,0h0.1c0.1,0,0.1,0,0.1,0.1l2.6,5.6c0,0.1,0,0.2-0.1,0.2h-0.9
			c-0.1,0-0.2,0-0.3-0.2L47.6,5h-2.3L45,5.7C45.1,5.9,45,6,44.8,6h-0.9C43.8,6,43.7,5.9,43.7,5.7z M47.2,4l-0.6-1.4l0,0L45.9,4H47.2
			z"/>
		<path class="st2" d="M54,0.2c0-0.1,0.1-0.2,0.2-0.2h1c0.1,0,0.2,0.1,0.2,0.2v4.4h2c0.1,0,0.2,0.1,0.2,0.2v0.9
			c0,0.1-0.1,0.2-0.2,0.2h-3.1C54.1,6,54,5.9,54,5.8V0.2z"/>
		<path class="st2" d="M62.3,0.2c0-0.1,0.1-0.2,0.2-0.2h1c0.1,0,0.2,0.1,0.2,0.2v5.5c0,0.1-0.1,0.2-0.2,0.2h-1
			c-0.1,0-0.2-0.1-0.2-0.2V0.2z"/>
		<path class="st2" d="M68.3,5.7l2.6-5.6C70.9,0,71,0,71,0h0.1c0.1,0,0.1,0,0.1,0.1l2.6,5.6c0,0.1,0,0.2-0.1,0.2h-0.9
			c-0.1,0-0.2,0-0.3-0.2L72.2,5h-2.3l-0.3,0.7c0,0.1-0.1,0.2-0.3,0.2h-0.9C68.3,6,68.2,5.9,68.3,5.7z M71.7,4l-0.6-1.4l0,0L70.4,4
			H71.7z"/>
		<path class="st2" d="M29.8,10.7c0-0.1,0.1-0.2,0.1-0.2h2c1.6,0,2.9,1.3,2.9,2.9s-1.3,2.9-2.9,2.9h-2c-0.1,0-0.1-0.1-0.1-0.2V10.7z
			 M31.9,15.1c0.9,0,1.6-0.7,1.6-1.7c0-0.9-0.7-1.7-1.6-1.7h-0.8v3.4H31.9z"/>
		<path class="st2" d="M38.7,10.7c0-0.1,0.1-0.2,0.2-0.2h3.4c0.1,0,0.2,0.1,0.2,0.2v0.9c0,0.1-0.1,0.2-0.2,0.2H40v1h1.9
			c0.1,0,0.2,0.1,0.2,0.2v0.9c0,0.1-0.1,0.2-0.2,0.2H40v1.1h2.3c0.1,0,0.2,0.1,0.2,0.2v0.9c0,0.1-0.1,0.2-0.2,0.2h-3.4
			c-0.1,0-0.2-0.1-0.2-0.2V10.7z"/>
		<path class="st2" d="M46.1,15.6l0.4-0.7c0.1-0.1,0.2-0.1,0.3-0.1c0,0,0.6,0.5,1.2,0.5c0.3,0,0.6-0.2,0.6-0.5
			c0-0.3-0.3-0.6-0.9-0.8c-0.7-0.3-1.6-0.8-1.6-1.8c0-0.8,0.6-1.7,1.9-1.7c0.9,0,1.5,0.4,1.8,0.6c0.1,0.1,0.1,0.2,0,0.3L49.4,12
			c-0.1,0.1-0.2,0.2-0.3,0.1c-0.1,0-0.7-0.5-1.2-0.5c-0.3,0-0.5,0.2-0.5,0.4c0,0.3,0.2,0.5,0.9,0.8c0.6,0.3,1.7,0.8,1.7,1.9
			c0,0.9-0.7,1.7-2,1.7c-1.1,0-1.7-0.4-1.9-0.6C46.1,15.7,46,15.7,46.1,15.6z"/>
		<path class="st2" d="M53.8,10.7c0-0.1,0.1-0.2,0.2-0.2h1c0.1,0,0.2,0.1,0.2,0.2v5.5c0,0.1-0.1,0.2-0.2,0.2h-1
			c-0.1,0-0.2-0.1-0.2-0.2V10.7z"/>
		<path class="st2" d="M62,10.5c0.7,0,1.5,0.3,2,0.8c0.1,0.1,0.1,0.2,0,0.2l-0.7,0.7c-0.1,0.1-0.2,0.1-0.2,0
			c-0.3-0.3-0.7-0.4-1.1-0.4c-0.9,0-1.6,0.8-1.6,1.7s0.7,1.7,1.6,1.7c0.2,0,0.5,0,0.7-0.1v-0.5h-0.5c-0.1,0-0.2-0.1-0.2-0.1v-0.8
			c0-0.1,0.1-0.2,0.2-0.2H64c0.1,0,0.1,0.1,0.1,0.2v2.2c0,0,0,0.1-0.1,0.1c0,0-0.9,0.5-2.1,0.5c-1.7,0-3-1.3-3-3
			C59,11.8,60.3,10.5,62,10.5z"/>
		<path class="st2" d="M68.1,10.6c0-0.1,0.1-0.1,0.2-0.1h0.2l3.3,3.2l0,0v-2.9c0-0.1,0.1-0.2,0.2-0.2h1c0.1,0,0.2,0.1,0.2,0.2v5.6
			c0,0.1-0.1,0.1-0.2,0.1h-0.1h-0.1l-3.3-3.3l0,0v3.1c0,0.1-0.1,0.2-0.2,0.2h-1c-0.1,0-0.2-0.1-0.2-0.2V10.6z"/>
	</g>
	<line class="st1" x1="257.2" y1="135.8" x2="302.4" y2="135.8"/>
	<g>
		<path class="st2" d="M133.7,0h13.7v61.3h-13.7l-29.2-38.4v38.4H90.8V0h12.8l30.1,39.5V0L133.7,0z"/>
	</g>
	<g>
		<path class="st2" d="M199.5,144.1l15.6-39h14.8l-24.6,61.3h-11.6l-24.6-61.3h14.8L199.5,144.1z"/>
	</g>
	<g>
		<path class="st2" d="M164.9,203.9v12.6h-31.6v13.1h28.4v12.1h-28.4v13.2h32.6v12.5h-46.7v-63.4L164.9,203.9L164.9,203.9z"/>
	</g>
	<line class="st0" x1="73.8" y1="25" x2="0" y2="25"/>
	<path class="st2" d="M247.4,13.7c-17.8,0-32.2,14.4-32.2,32.2h13.3c0-10.5,8.5-18.9,18.9-18.9c10.5,0,18.9,8.5,18.9,18.9
		s-8.5,18.9-18.9,18.9v13.3c17.8,0,32.2-14.4,32.2-32.2C279.6,28.1,265.2,13.7,247.4,13.7z"/>
</g>
<g id="Layer_3">
</g>
</svg>
