<?xml version="1.0" encoding="utf-8"?>
<!-- Generator: Adobe Illustrator 16.0.0, SVG Export Plug-In . SVG Version: 6.00 Build 0)  -->
<!DOCTYPE svg PUBLIC "-//W3C//DTD SVG 1.1//EN" "http://www.w3.org/Graphics/SVG/1.1/DTD/svg11.dtd">
<svg version="1.1" id="Layer_1" xmlns="http://www.w3.org/2000/svg" xmlns:xlink="http://www.w3.org/1999/xlink" x="0px" y="0px"
	 width="54.6px" height="68.9px" viewBox="0 0 54.6 68.9" style="enable-background:new 0 0 54.6 68.9;" xml:space="preserve">
<style type="text/css">
<![CDATA[
	.st0{fill:#FFFFFF;}
	.st1{fill:none;stroke:#FFFFFF;stroke-width:3.7447;stroke-miterlimit:10;}
]]>
</style>
<line class="st1" x1="42.9" y1="35" x2="54.6" y2="35"/>
<g>
	<path class="st0" d="M11.1,0h3.5v15.8h-3.5L3.5,5.9v9.9H0V0h3.3l7.8,10.2V0z"/>
</g>
<g>
	<path class="st0" d="M28,37.2l4-10.1h3.8l-6.4,15.8h-3l-6.4-15.8H24L28,37.2z"/>
</g>
<g>
	<path class="st0" d="M19.1,52.6v3.2H11v3.4h7.3v3.1H11v3.4h8.4v3.2h-12V52.6H19.1z"/>
</g>
<path class="st0" d="M46.3,5.9c-1.6-1.6-3.6-2.3-5.9-2.3s-4.3,0.8-5.9,2.3c-1.2,1.2-1.9,2.6-2.2,4.2c-0.1,0.5-0.2,1.1-0.2,1.7
	c0,0.1,0,0.3,0,0.4h3.7c0-1,0.2-2.1,0.3-2.4c0.2-0.6,0.6-1.2,1-1.6c0.9-1,2-1.5,3.3-1.5c1.3,0,2.4,0.5,3.3,1.5
	c0.9,1,1.4,2.2,1.4,3.6s-0.5,2.6-1.4,3.6c-0.5,0.5-1.1,0.9-1.7,1.2v3.2c1.6-0.3,3-1,4.3-2.2c1.6-1.6,2.4-3.5,2.4-5.8
	C48.7,9.4,47.9,7.5,46.3,5.9z"/>
</svg>
